<svg xmlns="http://www.w3.org/2000/svg" version="1.1" viewBox="308.26 201.6 403.17 542.66">
    <path fill="#b0fbf7" d="   M 513.19 217.14   Q 517.23 239.99 524.49 259.25   Q 539.12 298.11 563.94 333.78   Q 562.07 335.12 560.74 333.96   Q 560.26 333.54 559.62 333.50   L 552.92 333.11   Q 552.34 333.07 551.90 333.46   L 550.85 334.38   Q 546.65 335.49 545.25 335.53   Q 537.30 335.74 529.27 336.31   Q 523.02 336.11 519.87 334.38   Q 510.52 329.24 499.89 323.92   Q 499.34 322.99 499.96 321.74   C 502.88 315.85 505.57 309.15 505.01 302.67   C 504.33 294.81 502.04 285.62 496.68 279.66   Q 496.34 279.28 496.40 278.77   Q 496.52 277.73 496.01 276.87   Q 494.88 274.95 492.98 272.39   Q 492.88 272.27 492.89 272.10   Q 492.89 271.93 492.89 271.76   Q 492.89 271.39 492.65 271.11   Q 491.45 269.70 491.69 267.78   Q 497.08 255.18 500.59 245.32   Q 507.55 225.81 510.63 204.17   Q 510.58 202.83 511.11 201.81   Q 511.34 201.37 511.40 201.87   L 513.19 217.14   Z"/>
    <path fill="#18f9fb" d="   M 491.69 267.78   Q 491.45 269.70 492.65 271.11   Q 492.89 271.39 492.89 271.76   Q 492.89 271.93 492.89 272.10   Q 492.88 272.27 492.98 272.39   Q 494.88 274.95 496.01 276.87   Q 496.52 277.73 496.40 278.77   Q 496.34 279.28 496.68 279.66   C 502.04 285.62 504.33 294.81 505.01 302.67   C 505.57 309.15 502.88 315.85 499.96 321.74   Q 499.34 322.99 499.89 323.92   Q 494.14 329.05 488.35 334.59   Q 486.24 336.60 484.26 337.77   Q 476.58 342.31 468.48 346.01   Q 459.00 350.34 449.25 354.87   Q 445.31 356.70 444.70 353.68   C 462.08 325.07 477.92 297.37 491.69 267.78   Z"/>
    <path fill="#27dafa" d="   M 499.89 323.92   Q 510.52 329.24 519.87 334.38   Q 523.02 336.11 529.27 336.31   Q 517.70 346.15 507.34 357.59   Q 506.48 358.54 505.52 359.72   Q 500.26 366.19 495.04 372.94   C 492.12 376.70 489.99 380.93 487.66 385.05   Q 486.73 386.70 486.33 388.11   Q 485.85 389.80 485.15 391.39   Q 484.91 391.94 484.38 392.23   Q 483.67 392.63 483.84 393.43   Q 483.95 393.96 483.58 394.36   Q 482.75 395.27 481.87 396.28   Q 481.09 397.19 480.85 398.48   Q 479.53 405.62 478.88 412.98   Q 469.48 413.43 460.51 415.33   Q 457.32 416.00 454.47 417.60   Q 452.30 415.81 448.47 417.41   Q 443.58 419.47 439.22 422.47   Q 409.62 442.81 384.41 468.39   Q 371.00 482.51 361.18 500.45   Q 356.13 509.66 353.64 514.96   Q 349.31 518.09 349.35 513.59   Q 349.36 513.08 348.92 512.83   L 347.89 512.25   Q 362.26 483.42 376.87 459.61   C 385.98 444.76 397.79 427.21 408.02 410.98   Q 424.44 384.93 440.88 359.15   Q 442.70 356.30 444.70 353.68   Q 445.31 356.70 449.25 354.87   Q 459.00 350.34 468.48 346.01   Q 476.58 342.31 484.26 337.77   Q 486.24 336.60 488.35 334.59   Q 494.14 329.05 499.89 323.92   Z"/>
    <path fill="#18f9fb" d="   M 563.94 333.78   Q 573.43 347.17 591.66 374.28   Q 600.03 386.72 627.90 426.85   Q 640.13 444.45 656.77 472.46   Q 682.01 514.96 696.80 562.02   Q 702.93 582.76 707.10 603.95   L 706.63 606.20   Q 706.52 606.72 706.02 606.91   Q 705.44 607.12 705.63 607.75   A 0.42 0.41 78.3 0 0 706.07 608.05   Q 706.26 608.03 706.41 608.11   Q 706.85 608.37 706.44 608.66   Q 704.88 609.76 703.89 611.16   Q 703.70 611.43 703.39 611.55   Q 702.49 611.91 701.79 612.52   Q 700.39 613.74 700.01 613.98   Q 698.33 615.05 696.64 616.21   Q 694.93 617.36 693.15 618.17   Q 690.49 619.38 687.96 620.67   Q 687.75 620.78 687.60 620.98   Q 687.41 621.24 687.12 621.37   Q 684.35 622.66 681.97 622.22   Q 681.24 622.08 681.25 622.82   C 681.33 629.53 681.44 635.91 679.01 642.24   Q 678.63 643.23 676.32 646.58   Q 675.16 644.75 676.11 643.22   Q 677.35 641.21 677.39 641.12   Q 678.98 636.90 679.34 632.46   Q 679.92 625.35 679.14 618.24   C 678.58 613.10 678.07 607.48 676.71 602.41   C 675.78 598.97 675.50 595.53 674.40 592.09   C 673.45 589.13 673.10 586.01 671.85 582.86   Q 671.41 581.73 670.71 581.45   Q 669.79 581.08 668.59 581.92   Q 668.42 582.04 668.54 582.21   Q 668.64 582.34 668.77 582.37   Q 669.32 582.52 668.92 582.90   Q 668.30 583.50 668.21 584.47   Q 668.18 584.82 667.83 584.89   Q 666.89 585.07 666.86 586.24   Q 666.84 587.01 666.32 587.31   Q 663.41 573.60 660.16 564.06   Q 652.84 542.60 641.33 518.51   Q 633.60 502.26 624.74 487.73   Q 615.70 471.68 610.96 464.74   Q 602.44 452.24 586.75 432.56   Q 583.73 425.48 578.87 421.12   Q 577.15 419.57 576.16 418.20   Q 574.53 415.93 574.47 415.86   Q 570.14 410.64 567.03 405.22   Q 564.41 399.44 563.46 395.50   Q 560.32 382.53 554.03 354.47   Q 552.86 349.27 552.19 344.47   Q 551.48 339.47 550.85 334.38   L 551.90 333.46   Q 552.34 333.07 552.92 333.11   L 559.62 333.50   Q 560.26 333.54 560.74 333.96   Q 562.07 335.12 563.94 333.78   Z"/>
    <path fill="#0fbdda" d="   M 550.85 334.38   Q 551.48 339.47 552.19 344.47   Q 552.86 349.27 554.03 354.47   Q 560.32 382.53 563.46 395.50   Q 564.41 399.44 567.03 405.22   Q 565.63 407.26 563.76 409.26   Q 562.21 410.91 561.64 412.25   Q 560.91 413.97 560.19 416.04   Q 559.44 418.19 559.30 415.92   Q 559.27 415.41 559.63 415.06   Q 559.96 414.74 559.89 414.28   Q 559.73 413.20 560.64 412.61   Q 561.09 412.32 561.06 411.78   Q 560.91 409.11 559.76 405.75   Q 559.45 404.85 558.71 404.40   Q 558.29 404.15 558.10 403.70   Q 556.80 400.71 554.09 398.32   C 552.91 397.28 551.55 396.82 550.51 395.54   Q 549.46 394.26 548.28 395.43   L 545.00 398.69   Q 532.30 406.70 516.74 408.35   Q 516.36 408.39 515.78 408.87   Q 514.84 409.37 513.50 408.89   Q 512.55 408.54 512.15 409.25   Q 510.35 405.02 507.06 399.76   A 1.33 1.32 62.0 0 0 505.41 399.25   Q 505.22 399.33 504.90 400.14   Q 502.52 406.00 500.41 412.02   Q 500.35 411.90 500.30 411.79   Q 500.18 411.57 499.93 411.58   L 478.88 412.98   Q 479.53 405.62 480.85 398.48   Q 481.09 397.19 481.87 396.28   Q 482.75 395.27 483.58 394.36   Q 483.95 393.96 483.84 393.43   Q 483.67 392.63 484.38 392.23   Q 484.91 391.94 485.15 391.39   Q 485.85 389.80 486.33 388.11   Q 486.73 386.70 487.66 385.05   C 489.99 380.93 492.12 376.70 495.04 372.94   Q 500.26 366.19 505.52 359.72   Q 506.48 358.54 507.34 357.59   Q 517.70 346.15 529.27 336.31   Q 537.30 335.74 545.25 335.53   Q 546.65 335.49 550.85 334.38   Z"/>
    <path fill="#27dafa" d="   M 567.03 405.22   Q 570.14 410.64 574.47 415.86   Q 574.53 415.93 576.16 418.20   Q 577.15 419.57 578.87 421.12   Q 583.73 425.48 586.75 432.56   L 574.41 425.95   Q 567.71 422.25 565.73 421.56   Q 562.48 420.43 559.26 419.09   A 0.80 0.78 -72.7 0 1 558.80 418.19   Q 559.30 415.88 559.41 413.46   C 559.46 412.52 558.99 411.72 558.81 410.80   Q 558.61 409.77 558.05 408.91   Q 556.87 407.13 555.69 405.38   Q 554.71 403.92 553.08 402.55   Q 550.71 400.55 548.43 398.53   Q 547.58 397.77 546.79 397.83   Q 545.79 397.91 545.00 398.69   L 548.28 395.43   Q 549.46 394.26 550.51 395.54   C 551.55 396.82 552.91 397.28 554.09 398.32   Q 556.80 400.71 558.10 403.70   Q 558.29 404.15 558.71 404.40   Q 559.45 404.85 559.76 405.75   Q 560.91 409.11 561.06 411.78   Q 561.09 412.32 560.64 412.61   Q 559.73 413.20 559.89 414.28   Q 559.96 414.74 559.63 415.06   Q 559.27 415.41 559.30 415.92   Q 559.44 418.19 560.19 416.04   Q 560.91 413.97 561.64 412.25   Q 562.21 410.91 563.76 409.26   Q 565.63 407.26 567.03 405.22   Z"/>
    <path fill="#039aa5" d="   M 574.41 425.95   L 571.84 425.90   Q 571.08 425.89 571.42 426.56   Q 571.54 426.80 571.66 427.04   Q 571.90 427.54 572.36 427.83   Q 573.54 428.57 573.93 429.78   Q 574.25 430.79 574.92 431.73   Q 579.40 437.97 581.14 441.10   Q 587.73 452.93 585.51 466.81   Q 578.20 466.72 572.66 461.30   Q 572.30 460.95 571.82 460.82   Q 571.18 460.64 571.00 460.47   Q 568.21 457.91 565.73 455.75   Q 565.38 455.45 565.41 455.02   Q 565.46 454.53 565.13 454.17   Q 563.48 452.39 561.97 450.50   Q 561.03 449.32 559.74 448.31   Q 558.50 447.33 557.42 446.17   Q 553.96 442.45 551.16 437.50   C 550.46 436.27 549.26 435.62 548.65 434.61   Q 547.60 432.87 545.82 429.25   Q 544.50 426.55 543.50 423.58   Q 542.53 420.72 541.21 418.17   Q 540.99 417.74 540.61 417.45   Q 539.71 416.75 539.72 415.84   Q 539.72 415.38 539.31 415.17   Q 537.34 414.18 535.55 414.76   Q 533.26 415.50 530.74 416.01   Q 527.45 416.67 525.66 415.26   Q 522.06 412.40 518.63 409.22   Q 518.26 408.88 517.76 408.88   L 515.78 408.87   Q 516.36 408.39 516.74 408.35   Q 532.30 406.70 545.00 398.69   Q 545.79 397.91 546.79 397.83   Q 547.58 397.77 548.43 398.53   Q 550.71 400.55 553.08 402.55   Q 554.71 403.92 555.69 405.38   Q 556.87 407.13 558.05 408.91   Q 558.61 409.77 558.81 410.80   C 558.99 411.72 559.46 412.52 559.41 413.46   Q 559.30 415.88 558.80 418.19   A 0.80 0.78 -72.7 0 0 559.26 419.09   Q 562.48 420.43 565.73 421.56   Q 567.71 422.25 574.41 425.95   Z"/>
    <path fill="#18f9fb" d="   M 512.15 409.25   L 513.64 413.24   Q 522.01 435.87 531.03 458.23   C 533.90 465.34 536.62 473.79 538.95 479.77   Q 556.66 525.28 576.10 570.02   Q 576.51 576.25 575.66 578.64   Q 574.73 581.24 570.08 583.26   Q 569.88 583.34 569.67 583.29   Q 569.42 583.23 569.40 583.11   Q 569.32 582.49 568.75 582.57   L 566.99 582.82   Q 566.52 582.89 566.13 583.16   Q 565.13 583.85 563.76 584.20   Q 563.24 584.34 562.84 583.99   Q 562.03 583.29 560.91 582.98   Q 560.34 582.82 560.74 583.26   Q 561.16 583.72 561.33 584.35   Q 561.43 584.76 561.78 585.01   Q 562.75 585.72 563.16 586.87   Q 563.37 587.45 562.80 587.20   Q 561.27 586.53 560.23 585.24   Q 556.20 580.24 554.02 576.25   Q 553.87 575.98 553.57 575.93   Q 553.06 575.86 552.80 575.41   Q 550.98 572.27 548.29 569.80   Q 547.45 569.03 546.80 568.05   Q 546.18 567.11 545.59 566.24   A 0.89 0.87 70.1 0 0 544.80 565.86   Q 543.05 566.00 543.06 563.94   A 0.04 0.04 0.0 0 0 542.99 563.92   Q 542.90 564.07 542.72 564.08   Q 542.41 564.11 542.36 563.79   Q 542.32 563.50 542.39 563.22   Q 542.58 562.55 541.94 562.28   Q 540.25 561.55 540.07 560.16   Q 539.93 559.19 539.30 558.32   Q 537.60 556.02 535.62 553.92   Q 533.68 551.87 531.55 548.17   Q 530.73 546.75 530.20 545.27   Q 529.61 543.61 528.02 542.41   Q 527.53 542.04 527.37 541.46   Q 526.96 540.04 525.66 539.29   Q 525.53 539.22 525.45 539.33   Q 525.41 539.39 525.41 539.46   Q 525.44 539.78 525.24 539.53   Q 524.86 539.07 524.96 538.55   Q 525.03 538.18 524.75 537.93   Q 523.94 537.23 523.15 537.46   Q 519.71 526.25 515.90 515.02   C 513.89 509.07 511.97 504.24 507.95 500.19   Q 505.05 495.89 498.98 496.73   C 492.62 497.62 487.18 502.50 482.66 507.44   Q 479.05 511.38 476.66 515.15   Q 465.13 533.37 459.60 554.70   L 455.00 568.47   L 454.81 568.14   Q 454.54 567.68 454.15 568.04   Q 454.04 568.15 453.91 568.23   Q 453.59 568.45 453.32 568.17   L 450.80 565.63   Q 450.45 565.27 449.95 565.18   Q 448.29 564.89 447.44 563.17   C 456.23 536.93 465.73 510.85 475.37 484.90   Q 481.11 469.45 486.09 453.76   L 500.41 412.02   Q 502.52 406.00 504.90 400.14   Q 505.22 399.33 505.41 399.25   A 1.33 1.32 62.0 0 1 507.06 399.76   Q 510.35 405.02 512.15 409.25   Z"/>
    <path fill="#04889d" d="   M 515.78 408.87   L 517.76 408.88   Q 518.26 408.88 518.63 409.22   Q 522.06 412.40 525.66 415.26   Q 527.45 416.67 530.74 416.01   Q 533.26 415.50 535.55 414.76   Q 537.34 414.18 539.31 415.17   Q 539.72 415.38 539.72 415.84   Q 539.71 416.75 540.61 417.45   Q 540.99 417.74 541.21 418.17   Q 542.53 420.72 543.50 423.58   Q 544.50 426.55 545.82 429.25   Q 547.60 432.87 548.65 434.61   C 549.26 435.62 550.46 436.27 551.16 437.50   Q 553.96 442.45 557.42 446.17   Q 558.50 447.33 559.74 448.31   Q 561.03 449.32 561.97 450.50   Q 563.48 452.39 565.13 454.17   Q 565.46 454.53 565.41 455.02   Q 565.38 455.45 565.73 455.75   Q 568.21 457.91 571.00 460.47   Q 571.18 460.64 571.82 460.82   Q 572.30 460.95 572.66 461.30   Q 578.20 466.72 585.51 466.81   Q 584.17 475.22 579.29 482.50   Q 578.26 481.61 576.97 480.12   Q 575.82 478.80 574.59 477.80   Q 569.70 473.80 563.99 471.30   Q 563.51 471.09 562.97 471.00   Q 562.44 470.91 561.93 470.76   Q 560.05 470.18 561.16 471.81   Q 562.51 473.78 564.39 475.06   Q 565.05 475.50 565.38 476.25   Q 565.74 477.03 565.95 477.81   Q 566.09 478.31 566.53 478.61   L 574.21 483.85   Q 574.56 484.08 574.63 484.49   Q 574.69 484.85 575.05 484.89   A 0.53 0.46 -20.1 0 1 575.34 485.00   L 577.22 486.44   A 1.04 0.99 -29.7 0 0 578.00 486.63   Q 579.25 486.43 579.76 487.60   Q 579.95 488.05 580.34 488.32   C 581.92 489.40 582.42 490.95 583.78 492.17   Q 585.11 493.38 586.47 494.55   Q 586.79 494.82 586.85 494.41   L 587.03 493.27   C 589.43 496.74 589.41 504.20 589.30 508.37   C 588.88 511.79 587.63 515.68 589.33 518.95   Q 588.81 519.88 588.81 519.91   A 1.51 1.38 8.1 0 1 586.96 521.18   Q 586.23 521.00 585.59 521.38   Q 585.13 521.65 584.58 521.64   Q 582.49 521.60 580.42 521.67   Q 580.27 521.68 580.17 521.80   Q 579.97 522.06 579.64 522.04   Q 574.47 521.74 570.54 519.50   Q 567.53 517.78 566.03 513.56   Q 564.32 508.75 561.12 504.19   Q 560.20 502.89 559.32 501.28   Q 555.53 494.31 551.74 486.77   Q 551.67 486.62 551.50 486.57   Q 551.25 486.50 551.17 486.24   Q 550.81 484.97 549.97 483.94   Q 549.17 482.96 548.75 481.84   Q 547.89 479.54 546.53 478.03   Q 545.26 476.61 544.22 474.86   Q 542.39 471.77 539.98 468.85   Q 538.50 467.06 537.62 464.69   Q 536.86 462.63 538.98 463.15   L 550.29 465.88   A 1.49 1.49 0.0 0 0 551.97 463.76   Q 551.18 462.20 550.06 460.75   Q 548.91 459.27 548.29 457.62   Q 546.82 453.70 544.24 449.75   A 0.88 0.85 35.3 0 1 544.12 449.11   Q 544.14 448.98 544.16 448.84   Q 544.21 448.29 543.72 448.04   Q 542.83 447.59 542.15 446.38   Q 541.65 445.49 540.95 444.77   Q 538.88 442.61 538.08 440.00   Q 537.84 439.24 537.44 438.64   Q 536.85 437.76 536.28 436.92   Q 535.51 435.80 535.09 434.46   Q 534.35 432.10 532.91 429.88   Q 532.33 428.98 532.18 427.83   Q 532.11 427.30 531.77 426.89   C 530.58 425.46 530.00 423.81 528.89 422.36   Q 528.07 421.29 527.38 420.14   Q 526.34 418.38 524.52 418.22   Q 523.47 418.13 522.50 417.83   Q 520.47 417.20 518.62 416.44   C 516.36 415.50 516.61 413.16 513.64 413.24   L 512.15 409.25   Q 512.55 408.54 513.50 408.89   Q 514.84 409.37 515.78 408.87   Z"/>
    <path fill="#123e85" d="   M 500.41 412.02   L 486.09 453.76   Q 484.87 452.94 484.32 451.58   Q 484.11 451.06 483.59 450.86   C 482.54 450.44 482.06 449.38 480.99 448.76   Q 477.03 446.48 473.16 444.19   Q 470.77 442.78 465.71 443.07   Q 463.11 443.21 463.44 446.49   L 463.87 435.78   A 0.75 0.75 0.0 0 0 462.67 435.14   Q 454.13 441.47 446.56 445.29   Q 439.28 448.97 432.65 452.49   Q 430.81 453.47 428.89 454.64   Q 425.98 456.42 422.93 456.33   C 432.10 442.46 441.78 428.36 454.47 417.60   Q 457.32 416.00 460.51 415.33   Q 469.48 413.43 478.88 412.98   L 499.93 411.58   Q 500.18 411.57 500.30 411.79   Q 500.35 411.90 500.41 412.02   Z"/>
    <path fill="#075a7b" d="   M 513.64 413.24   C 516.61 413.16 516.36 415.50 518.62 416.44   Q 520.47 417.20 522.50 417.83   Q 523.47 418.13 524.52 418.22   Q 526.34 418.38 527.38 420.14   Q 528.07 421.29 528.89 422.36   C 530.00 423.81 530.58 425.46 531.77 426.89   Q 532.11 427.30 532.18 427.83   Q 532.33 428.98 532.91 429.88   Q 534.35 432.10 535.09 434.46   Q 535.51 435.80 536.28 436.92   Q 536.85 437.76 537.44 438.64   Q 537.84 439.24 538.08 440.00   Q 538.88 442.61 540.95 444.77   Q 541.65 445.49 542.15 446.38   Q 542.83 447.59 543.72 448.04   Q 544.21 448.29 544.16 448.84   Q 544.14 448.98 544.12 449.11   A 0.88 0.85 35.3 0 0 544.24 449.75   Q 546.82 453.70 548.29 457.62   Q 548.91 459.27 550.06 460.75   Q 551.18 462.20 551.97 463.76   A 1.49 1.49 0.0 0 1 550.29 465.88   L 538.98 463.15   Q 536.86 462.63 537.62 464.69   Q 538.50 467.06 539.98 468.85   Q 542.39 471.77 544.22 474.86   Q 545.26 476.61 546.53 478.03   Q 547.89 479.54 548.75 481.84   Q 549.17 482.96 549.97 483.94   Q 550.81 484.97 551.17 486.24   Q 551.25 486.50 551.50 486.57   Q 551.67 486.62 551.74 486.77   Q 555.53 494.31 559.32 501.28   Q 560.20 502.89 561.12 504.19   Q 564.32 508.75 566.03 513.56   Q 567.53 517.78 570.54 519.50   Q 574.47 521.74 579.64 522.04   Q 579.97 522.06 580.17 521.80   Q 580.27 521.68 580.42 521.67   Q 582.49 521.60 584.58 521.64   Q 585.13 521.65 585.59 521.38   Q 586.23 521.00 586.96 521.18   A 1.51 1.38 8.1 0 0 588.81 519.91   Q 588.81 519.88 589.33 518.95   Q 593.02 527.13 598.86 533.89   Q 606.22 542.42 607.99 544.73   Q 613.34 551.72 616.67 561.72   C 613.29 561.51 610.01 561.20 606.80 561.73   Q 596.71 563.39 589.50 570.40   Q 585.34 574.80 583.85 580.34   C 583.49 581.67 583.74 582.78 583.89 584.11   A 0.48 0.48 0.0 0 1 583.11 584.53   L 582.51 584.05   L 576.10 570.02   Q 556.66 525.28 538.95 479.77   C 536.62 473.79 533.90 465.34 531.03 458.23   Q 522.01 435.87 513.64 413.24   Z"/>

    <path fill="#2ba4f3" d="   M 454.47 417.60   C 441.78 428.36 432.10 442.46 422.93 456.33   L 411.20 473.11   Q 407.30 472.20 403.45 471.07   Q 403.24 471.01 403.08 470.85   Q 402.93 470.71 403.07 470.55   A 0.22 0.22 0.0 0 0 402.91 470.19   Q 400.01 470.08 397.30 469.53   Q 392.60 468.58 388.25 468.90   Q 387.36 468.96 386.43 469.19   Q 385.33 469.45 384.41 468.39   Q 409.62 442.81 439.22 422.47   Q 443.58 419.47 448.47 417.41   Q 452.30 415.81 454.47 417.60   Z"/>
    <path fill="#075a7b" d="   M 574.41 425.95   L 586.75 432.56   Q 602.44 452.24 610.96 464.74   Q 615.70 471.68 624.74 487.73   Q 616.34 488.18 608.80 484.64   C 607.25 483.91 605.91 482.79 605.60 481.00   Q 605.18 478.54 603.48 476.50   Q 602.83 475.72 602.07 475.67   Q 601.01 475.60 600.37 476.55   Q 600.09 476.95 599.63 477.14   C 599.01 477.38 598.38 477.57 597.88 478.02   Q 595.69 480.01 592.91 481.30   Q 592.83 481.33 592.78 481.38   Q 592.74 481.42 592.79 481.46   Q 593.00 481.61 592.74 481.68   Q 589.13 482.72 586.00 484.22   Q 585.28 484.56 585.06 485.33   Q 584.95 485.72 584.70 485.40   Q 584.45 485.05 583.97 485.25   Q 583.52 485.45 583.44 485.93   L 583.22 487.28   L 579.29 482.50   Q 584.17 475.22 585.51 466.81   Q 587.73 452.93 581.14 441.10   Q 579.40 437.97 574.92 431.73   Q 574.25 430.79 573.93 429.78   Q 573.54 428.57 572.36 427.83   Q 571.90 427.54 571.66 427.04   Q 571.54 426.80 571.42 426.56   Q 571.08 425.89 571.84 425.90   L 574.41 425.95   Z"/>
    <path fill="#1a124f" d="   M 463.44 446.49   C 463.57 448.02 462.96 449.03 461.34 449.27   Q 453.50 450.44 448.57 455.33   C 445.26 458.61 442.10 462.02 438.27 464.91   Q 432.25 469.45 428.21 475.43   C 424.86 480.39 420.93 484.59 417.53 489.39   C 415.80 491.85 415.28 494.78 414.58 497.61   Q 414.02 499.84 414.74 501.91   Q 415.01 502.70 415.79 502.98   Q 416.30 503.17 416.54 503.72   Q 416.90 504.55 417.70 504.14   Q 420.55 502.71 422.63 501.04   Q 424.66 499.41 425.53 496.53   Q 426.71 492.68 427.07 496.69   C 427.49 501.26 427.01 505.19 424.48 508.74   C 422.30 511.79 421.17 515.31 418.89 518.13   C 415.49 522.34 412.65 526.79 410.98 532.00   Q 410.92 532.18 410.73 532.22   Q 410.35 532.29 410.38 532.67   Q 410.44 533.59 409.74 534.17   Q 409.37 534.48 409.29 534.96   Q 408.85 537.26 408.68 539.37   Q 408.67 539.52 408.57 539.65   Q 408.48 539.75 408.35 539.78   Q 408.04 539.85 408.02 540.16   Q 407.87 542.19 407.81 544.49   Q 407.75 546.73 408.78 548.24   Q 409.99 550.03 411.26 551.55   Q 412.37 552.86 413.78 554.03   Q 415.30 555.28 416.22 557.14   Q 416.43 557.55 416.34 558.01   L 414.36 568.36   Q 414.03 567.57 413.77 567.70   Q 413.38 567.89 413.00 568.04   Q 412.57 568.21 412.13 568.07   Q 410.86 567.68 409.70 566.99   Q 408.64 566.35 407.32 566.30   Q 404.73 566.21 402.25 566.18   Q 401.61 566.17 401.05 565.86   Q 400.20 565.39 399.30 565.59   Q 399.07 565.64 398.89 565.49   Q 398.84 565.45 398.81 565.40   Q 398.55 564.95 398.28 565.46   Q 397.46 567.02 396.87 568.67   A 0.89 0.88 -64.5 0 1 395.59 569.13   Q 393.00 567.59 390.79 565.77   Q 389.46 564.66 387.98 563.86   Q 386.37 562.99 385.68 561.68   Q 384.70 559.82 384.34 557.57   Q 384.25 556.98 383.74 556.68   Q 383.04 556.27 382.50 555.63   Q 381.83 554.84 380.76 554.53   Q 378.76 553.94 376.81 554.50   Q 376.37 554.62 376.10 555.00   Q 374.57 557.11 374.10 559.73   Q 374.06 559.96 373.85 560.05   Q 373.48 560.23 373.44 560.64   Q 373.19 562.98 373.17 565.26   Q 373.16 567.57 372.67 569.80   Q 371.22 576.42 370.89 582.62   Q 370.89 582.64 370.89 582.67   Q 370.87 586.11 370.43 589.39   Q 370.18 591.22 369.41 593.14   C 368.49 595.40 368.06 596.93 367.86 599.58   Q 367.78 600.68 367.46 602.25   Q 366.79 605.62 367.89 612.40   Q 368.32 615.00 367.89 617.52   Q 367.29 621.02 366.35 622.76   Q 360.50 633.56 354.58 644.65   Q 351.72 640.80 351.12 637.63   Q 350.70 635.40 350.59 629.88   C 350.61 625.67 350.53 621.47 351.02 617.38   Q 353.07 600.49 358.05 585.50   Q 369.41 551.29 386.76 517.23   Q 392.21 506.53 398.10 495.26   L 411.20 473.11   L 422.93 456.33   Q 425.98 456.42 428.89 454.64   Q 430.81 453.47 432.65 452.49   Q 439.28 448.97 446.56 445.29   Q 454.13 441.47 462.67 435.14   A 0.75 0.75 0.0 0 1 463.87 435.78   L 463.44 446.49   Z"/>
    <path fill="#24268f" d="   M 486.09 453.76   Q 481.11 469.45 475.37 484.90   C 465.73 510.85 456.23 536.93 447.44 563.17   Q 441.83 577.67 435.20 591.75   C 429.80 603.20 422.08 613.48 414.20 623.49   Q 412.07 615.75 410.75 608.26   C 409.68 602.16 409.97 595.35 410.38 589.24   Q 410.66 585.14 412.24 578.75   Q 413.52 573.58 414.36 568.36   L 416.34 558.01   Q 416.43 557.55 416.22 557.14   Q 415.30 555.28 413.78 554.03   Q 412.37 552.86 411.26 551.55   Q 409.99 550.03 408.78 548.24   Q 407.75 546.73 407.81 544.49   Q 407.87 542.19 408.02 540.16   Q 408.04 539.85 408.35 539.78   Q 408.48 539.75 408.57 539.65   Q 408.67 539.52 408.68 539.37   Q 408.85 537.26 409.29 534.96   Q 409.37 534.48 409.74 534.17   Q 410.44 533.59 410.38 532.67   Q 410.35 532.29 410.73 532.22   Q 410.92 532.18 410.98 532.00   C 412.65 526.79 415.49 522.34 418.89 518.13   C 421.17 515.31 422.30 511.79 424.48 508.74   C 427.01 505.19 427.49 501.26 427.07 496.69   Q 426.71 492.68 425.53 496.53   Q 424.66 499.41 422.63 501.04   Q 420.55 502.71 417.70 504.14   Q 416.90 504.55 416.54 503.72   Q 416.30 503.17 415.79 502.98   Q 415.01 502.70 414.74 501.91   Q 414.02 499.84 414.58 497.61   C 415.28 494.78 415.80 491.85 417.53 489.39   C 420.93 484.59 424.86 480.39 428.21 475.43   Q 432.25 469.45 438.27 464.91   C 442.10 462.02 445.26 458.61 448.57 455.33   Q 453.50 450.44 461.34 449.27   C 462.96 449.03 463.57 448.02 463.44 446.49   Q 463.11 443.21 465.71 443.07   Q 470.77 442.78 473.16 444.19   Q 477.03 446.48 480.99 448.76   C 482.06 449.38 482.54 450.44 483.59 450.86   Q 484.11 451.06 484.32 451.58   Q 484.87 452.94 486.09 453.76   Z"/>
    <path fill="#326ef4" d="   M 384.41 468.39   Q 385.33 469.45 386.43 469.19   Q 387.36 468.96 388.25 468.90   Q 392.60 468.58 397.30 469.53   Q 400.01 470.08 402.91 470.19   A 0.22 0.22 0.0 0 1 403.07 470.55   Q 402.93 470.71 403.08 470.85   Q 403.24 471.01 403.45 471.07   Q 407.30 472.20 411.20 473.11   L 398.10 495.26   Q 388.99 496.35 382.66 502.30   Q 380.44 504.39 378.65 505.57   Q 375.85 507.42 374.60 508.64   Q 365.60 517.43 354.62 524.58   C 353.72 525.16 353.02 525.93 352.53 526.89   Q 352.37 527.21 352.10 526.95   Q 351.48 526.34 350.63 527.05   Q 350.54 527.13 350.43 527.18   Q 350.20 527.30 349.97 527.23   Q 349.31 527.02 349.35 527.72   Q 349.38 528.19 349.22 528.62   Q 348.97 529.29 348.49 528.76   L 347.84 528.03   L 353.64 514.96   Q 356.13 509.66 361.18 500.45   Q 371.00 482.51 384.41 468.39   Z"/>
    <path fill="#27dafa" d="   M 579.29 482.50   L 583.22 487.28   L 587.03 493.27   L 586.85 494.41   Q 586.79 494.82 586.47 494.55   Q 585.11 493.38 583.78 492.17   C 582.42 490.95 581.92 489.40 580.34 488.32   Q 579.95 488.05 579.76 487.60   Q 579.25 486.43 578.00 486.63   A 1.04 0.99 -29.7 0 1 577.22 486.44   L 575.34 485.00   A 0.53 0.46 -20.1 0 0 575.05 484.89   Q 574.69 484.85 574.63 484.49   Q 574.56 484.08 574.21 483.85   L 566.53 478.61   Q 566.09 478.31 565.95 477.81   Q 565.74 477.03 565.38 476.25   Q 565.05 475.50 564.39 475.06   Q 562.51 473.78 561.16 471.81   Q 560.05 470.18 561.93 470.76   Q 562.44 470.91 562.97 471.00   Q 563.51 471.09 563.99 471.30   Q 569.70 473.80 574.59 477.80   Q 575.82 478.80 576.97 480.12   Q 578.26 481.61 579.29 482.50   Z"/>
    <path fill="#0b3751" d="   M 624.74 487.73   Q 633.60 502.26 641.33 518.51   Q 640.86 518.71 640.40 518.44   Q 639.96 518.18 639.87 517.69   L 639.57 516.11   Q 639.45 515.43 639.17 516.07   Q 638.75 517.00 637.75 517.51   Q 637.32 517.72 636.99 517.38   Q 635.16 515.47 632.85 515.03   Q 631.51 514.77 629.97 514.68   Q 628.51 514.59 627.05 514.84   Q 624.27 515.32 621.66 515.53   Q 616.14 515.97 610.78 512.25   Q 608.68 510.79 605.28 509.06   C 603.54 508.18 601.65 508.19 600.06 507.11   Q 599.62 506.82 599.15 507.06   Q 599.00 507.15 598.83 507.16   Q 598.44 507.19 598.24 506.89   Q 598.07 506.64 597.96 506.35   Q 597.83 506.00 597.46 506.08   C 595.18 506.55 594.54 505.33 592.87 504.29   Q 592.43 504.01 592.00 504.31   Q 591.38 504.75 590.68 504.78   Q 590.12 504.80 590.11 505.35   Q 590.09 506.99 589.30 508.37   C 589.41 504.20 589.43 496.74 587.03 493.27   L 583.22 487.28   L 583.44 485.93   Q 583.52 485.45 583.97 485.25   Q 584.45 485.05 584.70 485.40   Q 584.95 485.72 585.06 485.33   Q 585.28 484.56 586.00 484.22   Q 589.13 482.72 592.74 481.68   Q 593.00 481.61 592.79 481.46   Q 592.74 481.42 592.78 481.38   Q 592.83 481.33 592.91 481.30   Q 595.69 480.01 597.88 478.02   C 598.38 477.57 599.01 477.38 599.63 477.14   Q 600.09 476.95 600.37 476.55   Q 601.01 475.60 602.07 475.67   Q 602.83 475.72 603.48 476.50   Q 605.18 478.54 605.60 481.00   C 605.91 482.79 607.25 483.91 608.80 484.64   Q 616.34 488.18 624.74 487.73   Z"/>
    <path fill="#543ced" d="   M 398.10 495.26   Q 392.21 506.53 386.76 517.23   Q 369.41 551.29 358.05 585.50   Q 353.07 600.49 351.02 617.38   C 350.53 621.47 350.61 625.67 350.59 629.88   Q 349.89 629.55 349.70 628.58   Q 349.61 628.11 349.27 628.45   Q 348.30 629.41 348.16 630.69   Q 347.63 635.46 347.09 640.55   C 346.00 650.80 354.72 657.70 364.12 659.48   Q 371.44 660.86 378.27 659.42   Q 395.63 655.76 409.72 644.75   Q 416.66 639.51 421.39 633.89   Q 438.03 614.08 448.20 587.75   Q 456.93 588.57 465.84 589.52   Q 468.30 589.78 470.55 589.59   Q 472.99 589.38 475.43 589.46   Q 476.09 589.49 476.11 590.13   Q 476.12 590.57 476.51 590.36   Q 478.01 589.52 478.38 588.63   Q 481.28 581.74 484.07 575.46   Q 485.48 575.40 486.70 575.54   C 490.31 575.96 494.72 575.37 497.52 574.71   Q 510.29 571.68 524.29 566.43   Q 526.45 565.62 530.12 561.13   Q 540.05 587.72 554.05 612.63   Q 542.12 614.67 531.30 613.00   Q 529.42 610.77 524.51 608.37   Q 522.29 607.28 516.64 602.39   Q 516.26 602.07 515.78 601.94   Q 514.63 601.63 513.82 600.66   A 1.43 1.40 76.5 0 0 513.07 600.19   Q 510.41 599.53 508.17 597.67   Q 507.77 597.33 507.24 597.30   Q 506.46 597.26 505.94 596.67   Q 505.66 596.35 505.23 596.34   C 504.94 596.32 504.41 596.27 504.15 596.12   Q 498.37 592.95 491.77 593.67   Q 490.03 593.87 488.26 594.09   Q 485.86 594.40 486.18 595.97   L 478.80 591.51   A 0.97 0.97 0.0 0 0 477.41 591.95   Q 464.01 622.79 443.78 649.28   Q 428.73 668.99 413.69 682.51   Q 399.36 693.72 384.01 701.89   Q 376.33 705.97 367.29 709.11   Q 366.83 709.27 367.05 709.70   Q 367.57 710.70 367.05 710.81   Q 357.37 706.50 350.02 702.17   C 337.92 695.06 323.93 683.93 316.67 671.93   C 307.54 656.86 307.01 640.59 309.64 623.43   L 311.74 612.84   Q 314.22 611.63 315.15 608.79   Q 316.43 604.90 316.46 604.83   Q 323.42 589.38 325.02 584.98   Q 337.68 550.15 347.84 528.03   L 348.49 528.76   Q 348.97 529.29 349.22 528.62   Q 349.38 528.19 349.35 527.72   Q 349.31 527.02 349.97 527.23   Q 350.20 527.30 350.43 527.18   Q 350.54 527.13 350.63 527.05   Q 351.48 526.34 352.10 526.95   Q 352.37 527.21 352.53 526.89   C 353.02 525.93 353.72 525.16 354.62 524.58   Q 365.60 517.43 374.60 508.64   Q 375.85 507.42 378.65 505.57   Q 380.44 504.39 382.66 502.30   Q 388.99 496.35 398.10 495.26   Z"/>
    <path fill="#2ba4f3" d="   M 507.95 500.19   Q 506.50 508.48 504.38 516.07   C 503.90 517.80 504.20 519.47 504.21 521.20   Q 504.23 522.98 503.41 524.94   Q 498.50 536.67 493.52 548.36   Q 492.79 548.55 492.49 549.14   Q 492.35 549.43 492.03 549.43   Q 491.89 549.44 491.76 549.35   Q 491.43 549.13 491.04 549.19   L 481.80 550.53   Q 481.34 550.60 480.97 550.88   Q 480.54 551.21 480.05 551.01   Q 479.53 550.80 479.00 550.99   Q 471.09 553.92 462.50 553.32   Q 461.46 553.25 459.60 554.70   Q 465.13 533.37 476.66 515.15   Q 479.05 511.38 482.66 507.44   C 487.18 502.50 492.62 497.62 498.98 496.73   Q 505.05 495.89 507.95 500.19   Z"/>
    <path fill="#1a124f" d="   M 507.95 500.19   C 511.97 504.24 513.89 509.07 515.90 515.02   Q 519.71 526.25 523.15 537.46   L 530.12 561.13   Q 526.45 565.62 524.29 566.43   Q 510.29 571.68 497.52 574.71   C 494.72 575.37 490.31 575.96 486.70 575.54   Q 485.48 575.40 484.07 575.46   L 493.52 548.36   Q 498.50 536.67 503.41 524.94   Q 504.23 522.98 504.21 521.20   C 504.20 519.47 503.90 517.80 504.38 516.07   Q 506.50 508.48 507.95 500.19   Z"/>
    <path fill="#0d1628" d="   M 641.33 518.51   Q 652.84 542.60 660.16 564.06   Q 663.41 573.60 666.32 587.31   Q 669.88 602.10 671.46 617.25   Q 672.12 623.61 671.58 630.02   Q 670.25 645.80 654.77 648.49   Q 648.08 649.66 639.30 647.39   Q 624.37 643.81 614.30 632.93   L 600.24 617.16   Q 599.87 616.75 600.42 616.63   L 601.99 616.31   L 613.03 615.72   Q 613.76 615.71 614.24 615.95   Q 614.68 616.18 615.17 616.16   Q 616.06 616.12 616.19 615.52   Q 627.02 612.39 632.19 602.62   Q 639.21 593.64 637.47 583.76   Q 635.90 574.78 628.43 568.35   Q 622.55 563.28 616.67 561.72   Q 613.34 551.72 607.99 544.73   Q 606.22 542.42 598.86 533.89   Q 593.02 527.13 589.33 518.95   C 587.63 515.68 588.88 511.79 589.30 508.37   Q 590.09 506.99 590.11 505.35   Q 590.12 504.80 590.68 504.78   Q 591.38 504.75 592.00 504.31   Q 592.43 504.01 592.87 504.29   C 594.54 505.33 595.18 506.55 597.46 506.08   Q 597.83 506.00 597.96 506.35   Q 598.07 506.64 598.24 506.89   Q 598.44 507.19 598.83 507.16   Q 599.00 507.15 599.15 507.06   Q 599.62 506.82 600.06 507.11   C 601.65 508.19 603.54 508.18 605.28 509.06   Q 608.68 510.79 610.78 512.25   Q 616.14 515.97 621.66 515.53   Q 624.27 515.32 627.05 514.84   Q 628.51 514.59 629.97 514.68   Q 631.51 514.77 632.85 515.03   Q 635.16 515.47 636.99 517.38   Q 637.32 517.72 637.75 517.51   Q 638.75 517.00 639.17 516.07   Q 639.45 515.43 639.57 516.11   L 639.87 517.69   Q 639.96 518.18 640.40 518.44   Q 640.86 518.71 641.33 518.51   Z"/>
    <path fill="#2ab3f9" d="   M 347.89 512.25   L 348.92 512.83   Q 349.36 513.08 349.35 513.59   Q 349.31 518.09 353.64 514.96   L 347.84 528.03   Q 337.68 550.15 325.02 584.98   Q 323.42 589.38 316.46 604.83   Q 316.43 604.90 315.15 608.79   Q 314.22 611.63 311.74 612.84   Q 312.20 609.93 312.71 608.00   C 321.51 574.95 332.48 542.84 347.89 512.25   Z"/>
    <path fill="#27dafa" d="   M 576.10 570.02   L 582.51 584.05   Q 586.57 595.79 594.23 608.55   Q 595.94 611.40 597.55 612.88   Q 597.93 613.23 598.43 613.32   Q 601.67 613.91 601.99 616.31   L 600.42 616.63   Q 599.87 616.75 600.24 617.16   L 614.30 632.93   Q 613.56 633.19 613.48 633.93   Q 613.44 634.28 613.75 634.45   Q 613.90 634.54 614.00 634.73   Q 614.26 635.25 613.77 634.93   Q 612.97 634.42 612.12 634.80   Q 608.63 636.40 604.40 636.75   Q 600.34 637.09 596.99 636.86   Q 596.49 636.83 596.05 637.07   C 594.34 637.99 589.78 637.27 587.94 637.05   C 586.89 636.92 585.86 637.45 584.88 637.31   Q 574.94 635.91 564.77 631.36   L 554.05 612.63   Q 540.05 587.72 530.12 561.13   L 523.15 537.46   Q 523.94 537.23 524.75 537.93   Q 525.03 538.18 524.96 538.55   Q 524.86 539.07 525.24 539.53   Q 525.44 539.78 525.41 539.46   Q 525.41 539.39 525.45 539.33   Q 525.53 539.22 525.66 539.29   Q 526.96 540.04 527.37 541.46   Q 527.53 542.04 528.02 542.41   Q 529.61 543.61 530.20 545.27   Q 530.73 546.75 531.55 548.17   Q 533.68 551.87 535.62 553.92   Q 537.60 556.02 539.30 558.32   Q 539.93 559.19 540.07 560.16   Q 540.25 561.55 541.94 562.28   Q 542.58 562.55 542.39 563.22   Q 542.32 563.50 542.36 563.79   Q 542.41 564.11 542.72 564.08   Q 542.90 564.07 542.99 563.92   A 0.04 0.04 0.0 0 1 543.06 563.94   Q 543.05 566.00 544.80 565.86   A 0.89 0.87 70.1 0 1 545.59 566.24   Q 546.18 567.11 546.80 568.05   Q 547.45 569.03 548.29 569.80   Q 550.98 572.27 552.80 575.41   Q 553.06 575.86 553.57 575.93   Q 553.87 575.98 554.02 576.25   Q 556.20 580.24 560.23 585.24   Q 561.27 586.53 562.80 587.20   Q 563.37 587.45 563.16 586.87   Q 562.75 585.72 561.78 585.01   Q 561.43 584.76 561.33 584.35   Q 561.16 583.72 560.74 583.26   Q 560.34 582.82 560.91 582.98   Q 562.03 583.29 562.84 583.99   Q 563.24 584.34 563.76 584.20   Q 565.13 583.85 566.13 583.16   Q 566.52 582.89 566.99 582.82   L 568.75 582.57   Q 569.32 582.49 569.40 583.11   Q 569.42 583.23 569.67 583.29   Q 569.88 583.34 570.08 583.26   Q 574.73 581.24 575.66 578.64   Q 576.51 576.25 576.10 570.02   Z"/>
    <path fill="#326ef4" d="   M 493.52 548.36   L 484.07 575.46   Q 481.28 581.74 478.38 588.63   Q 478.01 589.52 476.51 590.36   Q 476.12 590.57 476.11 590.13   Q 476.09 589.49 475.43 589.46   Q 472.99 589.38 470.55 589.59   Q 468.30 589.78 465.84 589.52   Q 456.93 588.57 448.20 587.75   L 455.00 568.47   L 459.60 554.70   Q 461.46 553.25 462.50 553.32   Q 471.09 553.92 479.00 550.99   Q 479.53 550.80 480.05 551.01   Q 480.54 551.21 480.97 550.88   Q 481.34 550.60 481.80 550.53   L 491.04 549.19   Q 491.43 549.13 491.76 549.35   Q 491.89 549.44 492.03 549.43   Q 492.35 549.43 492.49 549.14   Q 492.79 548.55 493.52 548.36   Z"/>
    <path fill="#150f31" d="   M 414.36 568.36   Q 413.52 573.58 412.24 578.75   Q 410.66 585.14 410.38 589.24   C 409.97 595.35 409.68 602.16 410.75 608.26   Q 412.07 615.75 414.20 623.49   L 411.48 626.48   Q 401.61 637.94 388.41 645.31   Q 383.87 647.85 377.99 649.63   Q 371.65 651.55 365.49 650.75   Q 358.41 649.84 354.58 644.65   Q 360.50 633.56 366.35 622.76   Q 367.29 621.02 367.89 617.52   Q 368.32 615.00 367.89 612.40   Q 366.79 605.62 367.46 602.25   Q 367.78 600.68 367.86 599.58   C 368.06 596.93 368.49 595.40 369.41 593.14   Q 370.18 591.22 370.43 589.39   Q 370.87 586.11 370.89 582.67   Q 370.89 582.64 370.89 582.62   Q 371.22 576.42 372.67 569.80   Q 373.16 567.57 373.17 565.26   Q 373.19 562.98 373.44 560.64   Q 373.48 560.23 373.85 560.05   Q 374.06 559.96 374.10 559.73   Q 374.57 557.11 376.10 555.00   Q 376.37 554.62 376.81 554.50   Q 378.76 553.94 380.76 554.53   Q 381.83 554.84 382.50 555.63   Q 383.04 556.27 383.74 556.68   Q 384.25 556.98 384.34 557.57   Q 384.70 559.82 385.68 561.68   Q 386.37 562.99 387.98 563.86   Q 389.46 564.66 390.79 565.77   Q 393.00 567.59 395.59 569.13   A 0.89 0.88 -64.5 0 0 396.87 568.67   Q 397.46 567.02 398.28 565.46   Q 398.55 564.95 398.81 565.40   Q 398.84 565.45 398.89 565.49   Q 399.07 565.64 399.30 565.59   Q 400.20 565.39 401.05 565.86   Q 401.61 566.17 402.25 566.18   Q 404.73 566.21 407.32 566.30   Q 408.64 566.35 409.70 566.99   Q 410.86 567.68 412.13 568.07   Q 412.57 568.21 413.00 568.04   Q 413.38 567.89 413.77 567.70   Q 414.03 567.57 414.36 568.36   Z"/>
    <path fill="#27dafa" d="   M 616.67 561.72   Q 622.55 563.28 628.43 568.35   Q 635.90 574.78 637.47 583.76   Q 639.21 593.64 632.19 602.62   Q 631.33 603.52 630.32 604.00   Q 628.95 604.63 628.36 605.06   C 624.50 607.87 619.65 607.79 614.88 607.68   Q 607.78 607.53 601.47 603.27   Q 596.35 599.82 593.15 595.83   Q 591.28 593.50 590.48 590.89   Q 589.58 587.95 589.45 584.97   Q 589.31 581.85 589.52 578.49   Q 589.59 577.55 589.17 574.56   Q 588.89 572.59 589.50 570.40   Q 596.71 563.39 606.80 561.73   C 610.01 561.20 613.29 561.51 616.67 561.72   Z"/>
    <path fill="#2ba4f3" d="   M 447.44 563.17   Q 448.29 564.89 449.95 565.18   Q 450.45 565.27 450.80 565.63   L 453.32 568.17   Q 453.59 568.45 453.91 568.23   Q 454.04 568.15 454.15 568.04   Q 454.54 567.68 454.81 568.14   L 455.00 568.47   L 448.20 587.75   Q 438.03 614.08 421.39 633.89   Q 416.66 639.51 409.72 644.75   L 408.06 644.55   Q 406.11 644.31 407.52 642.94   Q 410.16 640.36 412.53 637.70   Q 413.40 636.72 413.82 635.58   Q 414.30 634.26 414.91 632.98   A 1.51 1.47 52.2 0 0 415.02 631.99   Q 414.69 630.65 414.02 630.87   Q 413.50 631.04 413.37 630.51   L 413.07 629.29   A 1.03 1.00 -83.1 0 0 412.59 628.66   Q 411.72 628.19 412.24 627.34   Q 412.53 626.86 412.00 626.67   L 411.48 626.48   L 414.20 623.49   C 422.08 613.48 429.80 603.20 435.20 591.75   Q 441.83 577.67 447.44 563.17   Z"/>
    <path fill="#2ba4f3" d="   M 589.50 570.40   Q 588.89 572.59 589.17 574.56   Q 589.59 577.55 589.52 578.49   Q 589.31 581.85 589.45 584.97   Q 589.58 587.95 590.48 590.89   Q 591.28 593.50 593.15 595.83   Q 596.35 599.82 601.47 603.27   Q 607.78 607.53 614.88 607.68   C 619.65 607.79 624.50 607.87 628.36 605.06   Q 628.95 604.63 630.32 604.00   Q 631.33 603.52 632.19 602.62   Q 627.02 612.39 616.19 615.52   L 613.03 615.72   L 601.99 616.31   Q 601.67 613.91 598.43 613.32   Q 597.93 613.23 597.55 612.88   Q 595.94 611.40 594.23 608.55   Q 586.57 595.79 582.51 584.05   L 583.11 584.53   A 0.48 0.48 0.0 0 0 583.89 584.11   C 583.74 582.78 583.49 581.67 583.85 580.34   Q 585.34 574.80 589.50 570.40   Z"/>
    <path fill="#27dafa" d="   M 676.32 646.58   C 670.01 653.77 661.84 654.72 653.24 652.90   Q 646.66 651.50 640.25 649.33   Q 639.42 649.05 639.30 647.39   Q 648.08 649.66 654.77 648.49   Q 670.25 645.80 671.58 630.02   Q 672.12 623.61 671.46 617.25   Q 669.88 602.10 666.32 587.31   Q 666.84 587.01 666.86 586.24   Q 666.89 585.07 667.83 584.89   Q 668.18 584.82 668.21 584.47   Q 668.30 583.50 668.92 582.90   Q 669.32 582.52 668.77 582.37   Q 668.64 582.34 668.54 582.21   Q 668.42 582.04 668.59 581.92   Q 669.79 581.08 670.71 581.45   Q 671.41 581.73 671.85 582.86   C 673.10 586.01 673.45 589.13 674.40 592.09   C 675.50 595.53 675.78 598.97 676.71 602.41   C 678.07 607.48 678.58 613.10 679.14 618.24   Q 679.92 625.35 679.34 632.46   Q 678.98 636.90 677.39 641.12   Q 677.35 641.21 676.11 643.22   Q 675.16 644.75 676.32 646.58   Z"/>
    <path fill="#1a124f" d="   M 486.18 595.97   Q 506.13 611.42 531.30 613.00   Q 542.12 614.67 554.05 612.63   L 564.77 631.36   Q 575.24 649.28 587.79 664.90   Q 581.78 660.86 575.98 656.99   Q 571.46 653.96 562.56 651.86   Q 552.16 647.75 541.16 646.97   Q 537.56 646.71 534.41 646.37   Q 530.94 645.98 527.51 646.18   Q 512.89 647.00 498.59 650.60   Q 469.06 658.03 441.33 673.12   Q 432.59 677.88 419.55 686.24   Q 417.36 686.13 415.70 685.08   Q 414.33 684.22 412.98 684.89   Q 412.74 685.01 412.57 684.81   Q 412.30 684.50 412.60 684.21   Q 413.45 683.39 413.69 682.51   Q 428.73 668.99 443.78 649.28   Q 464.01 622.79 477.41 591.95   A 0.97 0.97 0.0 0 1 478.80 591.51   L 486.18 595.97   Z"/>
    <path fill="#962bf1" d="   M 531.30 613.00   Q 506.13 611.42 486.18 595.97   Q 485.86 594.40 488.26 594.09   Q 490.03 593.87 491.77 593.67   Q 498.37 592.95 504.15 596.12   C 504.41 596.27 504.94 596.32 505.23 596.34   Q 505.66 596.35 505.94 596.67   Q 506.46 597.26 507.24 597.30   Q 507.77 597.33 508.17 597.67   Q 510.41 599.53 513.07 600.19   A 1.43 1.40 76.5 0 1 513.82 600.66   Q 514.63 601.63 515.78 601.94   Q 516.26 602.07 516.64 602.39   Q 522.29 607.28 524.51 608.37   Q 529.42 610.77 531.30 613.00   Z"/>
    <path fill="#2ab3f9" d="   M 707.10 603.95   Q 709.14 614.04 710.55 624.25   Q 711.29 629.61 711.31 635.06   Q 710.94 635.10 710.91 635.93   Q 710.90 636.35 710.89 635.92   Q 710.88 635.73 710.78 635.56   A 0.83 0.82 -8.6 0 0 710.25 635.17   Q 709.59 635.02 709.14 634.47   A 1.41 1.40 43.4 0 0 706.92 634.53   C 706.30 635.40 705.78 636.62 705.60 637.70   Q 704.94 641.71 704.29 645.82   Q 703.73 649.37 701.39 652.48   Q 699.02 655.64 695.95 657.73   Q 694.86 658.47 693.98 659.50   Q 693.65 659.88 693.18 660.05   Q 690.88 660.86 690.31 661.30   Q 686.91 663.91 683.57 665.85   Q 671.07 672.90 654.88 680.13   Q 641.79 685.97 632.84 689.51   Q 632.00 689.84 627.40 691.91   Q 624.61 693.17 621.77 693.91   Q 621.63 693.55 620.93 693.58   A 1.75 1.67 58.9 0 1 620.01 693.33   Q 607.69 685.85 599.98 677.75   Q 593.77 671.23 587.79 664.90   Q 575.24 649.28 564.77 631.36   Q 574.94 635.91 584.88 637.31   C 585.86 637.45 586.89 636.92 587.94 637.05   C 589.78 637.27 594.34 637.99 596.05 637.07   Q 596.49 636.83 596.99 636.86   Q 600.34 637.09 604.40 636.75   Q 608.63 636.40 612.12 634.80   Q 612.97 634.42 613.77 634.93   Q 614.26 635.25 614.00 634.73   Q 613.90 634.54 613.75 634.45   Q 613.44 634.28 613.48 633.93   Q 613.56 633.19 614.30 632.93   Q 624.37 643.81 639.30 647.39   Q 639.42 649.05 640.25 649.33   Q 646.66 651.50 653.24 652.90   C 661.84 654.72 670.01 653.77 676.32 646.58   Q 678.63 643.23 679.01 642.24   C 681.44 635.91 681.33 629.53 681.25 622.82   Q 681.24 622.08 681.97 622.22   Q 684.35 622.66 687.12 621.37   Q 687.41 621.24 687.60 620.98   Q 687.75 620.78 687.96 620.67   Q 690.49 619.38 693.15 618.17   Q 694.93 617.36 696.64 616.21   Q 698.33 615.05 700.01 613.98   Q 700.39 613.74 701.79 612.52   Q 702.49 611.91 703.39 611.55   Q 703.70 611.43 703.89 611.16   Q 704.88 609.76 706.44 608.66   Q 706.85 608.37 706.41 608.11   Q 706.26 608.03 706.07 608.05   A 0.42 0.41 78.3 0 1 705.63 607.75   Q 705.44 607.12 706.02 606.91   Q 706.52 606.72 706.63 606.20   L 707.10 603.95   Z"/>
    <path fill="#24268f" d="   M 616.19 615.52   Q 616.06 616.12 615.17 616.16   Q 614.68 616.18 614.24 615.95   Q 613.76 615.71 613.03 615.72   L 616.19 615.52   Z"/>
    <path fill="#326ef4" d="   M 411.48 626.48   L 412.00 626.67   Q 412.53 626.86 412.24 627.34   Q 411.72 628.19 412.59 628.66   A 1.03 1.00 -83.1 0 1 413.07 629.29   L 413.37 630.51   Q 413.50 631.04 414.02 630.87   Q 414.69 630.65 415.02 631.99   A 1.51 1.47 52.2 0 1 414.91 632.98   Q 414.30 634.26 413.82 635.58   Q 413.40 636.72 412.53 637.70   Q 410.16 640.36 407.52 642.94   Q 406.11 644.31 408.06 644.55   L 409.72 644.75   Q 395.63 655.76 378.27 659.42   Q 371.44 660.86 364.12 659.48   C 354.72 657.70 346.00 650.80 347.09 640.55   Q 347.63 635.46 348.16 630.69   Q 348.30 629.41 349.27 628.45   Q 349.61 628.11 349.70 628.58   Q 349.89 629.55 350.59 629.88   Q 350.70 635.40 351.12 637.63   Q 351.72 640.80 354.58 644.65   Q 358.41 649.84 365.49 650.75   Q 371.65 651.55 377.99 649.63   Q 383.87 647.85 388.41 645.31   Q 401.61 637.94 411.48 626.48   Z"/>
    <path fill="#2ba4f3" d="   M 711.31 635.06   Q 712.58 656.83 700.98 673.00   Q 684.12 696.52 654.70 707.67   C 651.22 707.03 647.73 707.09 644.64 705.41   Q 638.06 701.83 630.82 698.49   C 629.99 698.11 629.62 697.10 629.96 696.24   Q 643.73 690.71 647.88 688.88   Q 666.10 680.80 683.57 665.85   Q 686.91 663.91 690.31 661.30   Q 690.88 660.86 693.18 660.05   Q 693.65 659.88 693.98 659.50   Q 694.86 658.47 695.95 657.73   Q 699.02 655.64 701.39 652.48   Q 703.73 649.37 704.29 645.82   Q 704.94 641.71 705.60 637.70   C 705.78 636.62 706.30 635.40 706.92 634.53   A 1.41 1.40 43.4 0 1 709.14 634.47   Q 709.59 635.02 710.25 635.17   A 0.83 0.82 -8.6 0 1 710.78 635.56   Q 710.88 635.73 710.89 635.92   Q 710.90 636.35 710.91 635.93   Q 710.94 635.10 711.31 635.06   Z"/>
    <path fill="#b52ef5" d="   M 562.56 651.86   L 563.88 653.25   Q 564.18 653.57 563.82 653.83   Q 563.68 653.93 563.61 654.10   Q 563.52 654.34 563.53 654.08   Q 563.53 654.00 563.48 653.94   Q 563.31 653.71 563.27 653.99   Q 563.23 654.25 563.31 654.49   A 0.46 0.46 0.0 0 0 563.75 654.81   Q 565.26 654.81 565.18 656.17   Q 565.15 656.57 565.37 656.91   L 566.44 658.54   Q 566.72 658.96 566.56 659.45   Q 566.32 660.23 566.05 661.02   Q 565.73 661.96 565.93 662.93   Q 567.04 668.32 568.71 673.34   Q 568.75 673.48 568.86 673.59   Q 568.97 673.68 569.07 673.78   Q 569.19 673.89 569.23 674.05   L 571.68 684.28   Q 571.73 684.48 571.61 684.32   Q 571.16 683.72 571.40 685.06   Q 571.62 686.27 572.03 687.44   Q 572.44 688.58 572.40 689.69   Q 572.39 690.19 572.60 690.64   Q 573.17 691.83 573.76 693.09   Q 573.83 693.25 573.80 693.41   Q 573.76 693.58 573.58 693.61   A 0.20 0.19 72.8 0 0 573.44 693.89   Q 574.36 695.99 575.26 698.21   Q 575.38 698.48 575.56 698.25   Q 575.78 697.99 575.99 698.28   A 0.62 0.59 32.0 0 1 576.11 698.74   Q 576.02 699.52 576.17 700.27   Q 576.31 700.98 576.84 701.64   Q 579.36 704.80 579.82 708.30   L 561.32 712.74   Q 564.70 710.22 560.69 706.64   Q 560.56 706.53 560.60 706.37   Q 560.65 706.18 560.53 706.00   Q 560.27 705.60 560.37 706.06   Q 560.46 706.42 560.31 706.73   Q 560.01 707.35 559.77 706.71   Q 559.29 705.47 558.43 704.42   Q 558.05 703.97 557.48 704.12   Q 557.23 704.19 557.00 704.08   Q 556.62 703.88 556.39 703.54   Q 555.01 701.50 553.66 699.43   Q 553.39 699.01 553.61 698.55   Q 554.01 697.74 554.63 697.25   Q 554.97 696.98 554.72 696.62   Q 554.16 695.82 553.39 695.29   Q 552.99 695.01 552.75 694.57   Q 551.10 691.48 548.26 689.08   Q 547.89 688.76 547.78 688.28   Q 547.06 685.13 544.44 683.15   Q 543.83 682.69 544.16 683.38   Q 544.23 683.53 544.15 683.69   Q 543.83 684.30 543.47 683.72   Q 542.54 682.24 540.93 681.35   A 0.06 0.05 -80.3 0 0 540.85 681.41   Q 540.89 681.55 540.80 681.66   Q 540.61 681.89 540.38 681.71   L 538.11 679.90   Q 537.70 679.57 537.63 680.10   Q 537.59 680.36 537.34 680.31   Q 537.02 680.25 536.74 680.06   Q 535.54 679.20 534.40 678.38   A 0.93 0.92 -39.0 0 0 533.48 678.29   Q 533.24 678.39 533.00 678.48   Q 532.50 678.68 532.01 678.47   Q 530.27 677.71 529.79 676.23   Q 529.61 675.70 529.12 675.47   L 524.19 673.14   A 0.89 0.65 -22.7 0 0 523.90 673.07   Q 522.92 673.03 522.34 672.45   Q 522.01 672.12 521.54 672.12   L 520.30 672.12   Q 519.70 672.12 519.85 671.54   L 520.00 670.92   Q 520.15 670.35 519.57 670.23   Q 516.32 669.55 512.99 669.45   Q 512.05 669.42 512.00 670.30   Q 511.96 670.91 511.36 670.91   Q 507.27 670.95 503.06 670.95   Q 501.68 670.94 500.49 671.48   Q 499.60 671.88 500.57 671.88   L 502.24 671.88   A 0.25 0.25 0.0 0 1 502.26 672.38   Q 498.39 672.75 494.73 673.56   Q 494.53 673.61 494.33 673.55   Q 494.20 673.51 494.17 673.37   Q 494.05 672.71 493.40 672.86   Q 492.53 673.06 492.14 673.85   Q 491.96 674.22 491.57 674.33   Q 488.74 675.13 485.93 675.69   Q 485.74 675.73 485.60 675.87   Q 485.45 676.02 485.40 676.22   A 0.57 0.57 0.0 0 1 484.95 676.62   L 480.34 677.41   Q 479.86 677.49 479.85 677.00   Q 479.85 676.39 480.42 676.37   Q 480.74 676.36 480.59 676.08   Q 480.34 675.60 480.71 675.18   Q 481.30 674.51 480.42 674.66   Q 476.18 675.39 472.23 676.50   Q 471.90 676.59 471.68 676.86   Q 471.54 677.04 471.44 677.25   Q 471.26 677.63 470.85 677.76   L 466.29 679.15   A 0.61 0.60 -83.4 0 0 465.94 679.43   L 464.57 681.66   A 1.38 1.38 0.0 0 1 463.24 682.30   Q 462.06 682.16 462.03 683.32   Q 462.02 683.56 461.78 683.50   Q 461.66 683.47 461.73 683.24   Q 461.85 682.84 461.45 682.98   L 454.71 685.36   A 0.30 0.30 0.0 0 1 454.40 685.31   Q 454.11 685.09 454.25 684.98   Q 454.56 684.73 454.19 684.86   Q 452.34 685.46 450.58 686.81   Q 450.32 687.01 450.30 687.33   Q 450.29 687.48 450.21 687.61   Q 449.97 687.99 449.54 688.19   Q 447.77 689.01 446.16 689.98   Q 445.81 690.19 445.61 690.56   L 443.23 694.99   Q 443.02 695.38 442.61 695.54   Q 440.69 696.31 438.81 697.47   Q 437.76 698.13 436.98 699.00   Q 435.81 700.32 433.90 700.93   Q 433.73 700.98 433.70 700.82   Q 433.61 700.45 433.29 700.65   Q 431.41 701.80 429.48 703.00   Q 429.19 703.19 429.18 703.54   L 429.18 703.83   Q 429.17 704.31 428.71 704.41   Q 427.06 704.79 425.57 704.90   Q 424.66 704.96 423.96 705.40   C 422.70 706.17 421.56 706.85 420.48 707.91   Q 418.45 709.93 416.21 710.74   Q 413.87 711.59 411.26 713.45   Q 409.49 714.71 407.58 716.13   Q 407.14 716.45 407.00 716.99   Q 406.86 717.54 406.28 717.79   Q 405.75 718.01 405.39 718.46   Q 401.65 723.09 396.65 724.51   Q 385.30 720.32 373.10 713.89   Q 378.27 711.37 382.72 709.08   Q 384.62 708.11 386.75 707.95   Q 387.26 707.91 387.64 707.56   Q 388.47 706.79 389.37 706.31   Q 401.81 699.54 413.17 691.73   Q 414.69 690.68 416.42 688.98   Q 417.91 687.50 419.55 686.24   Q 432.59 677.88 441.33 673.12   Q 469.06 658.03 498.59 650.60   Q 512.89 647.00 527.51 646.18   Q 530.94 645.98 534.41 646.37   Q 537.56 646.71 541.16 646.97   Q 552.16 647.75 562.56 651.86   Z"/>
    <path fill="#962bf1" d="   M 562.56 651.86   Q 571.46 653.96 575.98 656.99   Q 581.78 660.86 587.79 664.90   Q 593.77 671.23 599.98 677.75   Q 607.69 685.85 620.01 693.33   A 1.75 1.67 58.9 0 0 620.93 693.58   Q 621.63 693.55 621.77 693.91   L 606.81 699.38   L 579.82 708.30   Q 579.36 704.80 576.84 701.64   Q 576.31 700.98 576.17 700.27   Q 576.02 699.52 576.11 698.74   A 0.62 0.59 32.0 0 0 575.99 698.28   Q 575.78 697.99 575.56 698.25   Q 575.38 698.48 575.26 698.21   Q 574.36 695.99 573.44 693.89   A 0.20 0.19 72.8 0 1 573.58 693.61   Q 573.76 693.58 573.80 693.41   Q 573.83 693.25 573.76 693.09   Q 573.17 691.83 572.60 690.64   Q 572.39 690.19 572.40 689.69   Q 572.44 688.58 572.03 687.44   Q 571.62 686.27 571.40 685.06   Q 571.16 683.72 571.61 684.32   Q 571.73 684.48 571.68 684.28   L 569.23 674.05   Q 569.19 673.89 569.07 673.78   Q 568.97 673.68 568.86 673.59   Q 568.75 673.48 568.71 673.34   Q 567.04 668.32 565.93 662.93   Q 565.73 661.96 566.05 661.02   Q 566.32 660.23 566.56 659.45   Q 566.72 658.96 566.44 658.54   L 565.37 656.91   Q 565.15 656.57 565.18 656.17   Q 565.26 654.81 563.75 654.81   A 0.46 0.46 0.0 0 1 563.31 654.49   Q 563.23 654.25 563.27 653.99   Q 563.31 653.71 563.48 653.94   Q 563.53 654.00 563.53 654.08   Q 563.52 654.34 563.61 654.10   Q 563.68 653.93 563.82 653.83   Q 564.18 653.57 563.88 653.25   L 562.56 651.86   Z"/>
    <path fill="#18f9fb" d="   M 683.57 665.85   Q 666.10 680.80 647.88 688.88   Q 643.73 690.71 629.96 696.24   L 615.83 701.34   L 608.85 703.53   Q 608.68 702.47 607.57 701.85   Q 607.17 701.62 607.32 701.18   Q 607.70 700.05 606.81 699.38   L 621.77 693.91   Q 624.61 693.17 627.40 691.91   Q 632.00 689.84 632.84 689.51   Q 641.79 685.97 654.88 680.13   Q 671.07 672.90 683.57 665.85   Z"/>
    <path fill="#e22af8" d="   M 561.32 712.74   Q 557.57 713.65 554.01 714.31   Q 513.74 721.76 473.88 716.55   Q 457.68 714.43 440.34 710.11   Q 433.46 708.40 426.83 705.71   Q 426.77 705.69 426.75 705.75   L 426.64 705.98   Q 426.54 706.22 426.77 706.32   Q 447.15 716.14 467.82 719.50   Q 510.06 726.36 552.66 719.12   C 561.95 717.55 571.39 715.04 580.66 712.69   L 582.51 715.47   Q 582.74 715.81 583.14 715.86   Q 583.37 715.88 583.54 716.03   Q 587.14 719.17 590.56 722.41   Q 590.86 722.69 591.26 722.78   C 591.86 722.90 592.23 723.14 592.60 723.62   Q 594.25 725.72 595.98 727.99   C 596.81 729.08 597.84 729.56 598.12 731.02   Q 598.19 731.39 598.56 731.33   Q 598.71 731.31 598.85 731.36   Q 599.36 731.55 599.00 731.97   L 598.76 732.25   Q 572.93 739.56 543.25 742.52   Q 479.10 748.92 417.75 731.82   Q 408.05 729.12 396.65 724.51   Q 401.65 723.09 405.39 718.46   Q 405.75 718.01 406.28 717.79   Q 406.86 717.54 407.00 716.99   Q 407.14 716.45 407.58 716.13   Q 409.49 714.71 411.26 713.45   Q 413.87 711.59 416.21 710.74   Q 418.45 709.93 420.48 707.91   C 421.56 706.85 422.70 706.17 423.96 705.40   Q 424.66 704.96 425.57 704.90   Q 427.06 704.79 428.71 704.41   Q 429.17 704.31 429.18 703.83   L 429.18 703.54   Q 429.19 703.19 429.48 703.00   Q 431.41 701.80 433.29 700.65   Q 433.61 700.45 433.70 700.82   Q 433.73 700.98 433.90 700.93   Q 435.81 700.32 436.98 699.00   Q 437.76 698.13 438.81 697.47   Q 440.69 696.31 442.61 695.54   Q 443.02 695.38 443.23 694.99   L 445.61 690.56   Q 445.81 690.19 446.16 689.98   Q 447.77 689.01 449.54 688.19   Q 449.97 687.99 450.21 687.61   Q 450.29 687.48 450.30 687.33   Q 450.32 687.01 450.58 686.81   Q 452.34 685.46 454.19 684.86   Q 454.56 684.73 454.25 684.98   Q 454.11 685.09 454.40 685.31   A 0.30 0.30 0.0 0 0 454.71 685.36   L 461.45 682.98   Q 461.85 682.84 461.73 683.24   Q 461.66 683.47 461.78 683.50   Q 462.02 683.56 462.03 683.32   Q 462.06 682.16 463.24 682.30   A 1.38 1.38 0.0 0 0 464.57 681.66   L 465.94 679.43   A 0.61 0.60 -83.4 0 1 466.29 679.15   L 470.85 677.76   Q 471.26 677.63 471.44 677.25   Q 471.54 677.04 471.68 676.86   Q 471.90 676.59 472.23 676.50   Q 476.18 675.39 480.42 674.66   Q 481.30 674.51 480.71 675.18   Q 480.34 675.60 480.59 676.08   Q 480.74 676.36 480.42 676.37   Q 479.85 676.39 479.85 677.00   Q 479.86 677.49 480.34 677.41   L 484.95 676.62   A 0.57 0.57 0.0 0 0 485.40 676.22   Q 485.45 676.02 485.60 675.87   Q 485.74 675.73 485.93 675.69   Q 488.74 675.13 491.57 674.33   Q 491.96 674.22 492.14 673.85   Q 492.53 673.06 493.40 672.86   Q 494.05 672.71 494.17 673.37   Q 494.20 673.51 494.33 673.55   Q 494.53 673.61 494.73 673.56   Q 498.39 672.75 502.26 672.38   A 0.25 0.25 0.0 0 0 502.24 671.88   L 500.57 671.88   Q 499.60 671.88 500.49 671.48   Q 501.68 670.94 503.06 670.95   Q 507.27 670.95 511.36 670.91   Q 511.96 670.91 512.00 670.30   Q 512.05 669.42 512.99 669.45   Q 516.32 669.55 519.57 670.23   Q 520.15 670.35 520.00 670.92   L 519.85 671.54   Q 519.70 672.12 520.30 672.12   L 521.54 672.12   Q 522.01 672.12 522.34 672.45   Q 522.92 673.03 523.90 673.07   A 0.89 0.65 -22.7 0 1 524.19 673.14   L 529.12 675.47   Q 529.61 675.70 529.79 676.23   Q 530.27 677.71 532.01 678.47   Q 532.50 678.68 533.00 678.48   Q 533.24 678.39 533.48 678.29   A 0.93 0.92 -39.0 0 1 534.40 678.38   Q 535.54 679.20 536.74 680.06   Q 537.02 680.25 537.34 680.31   Q 537.59 680.36 537.63 680.10   Q 537.70 679.57 538.11 679.90   L 540.38 681.71   Q 540.61 681.89 540.80 681.66   Q 540.89 681.55 540.85 681.41   A 0.06 0.05 -80.3 0 1 540.93 681.35   Q 542.54 682.24 543.47 683.72   Q 543.83 684.30 544.15 683.69   Q 544.23 683.53 544.16 683.38   Q 543.83 682.69 544.44 683.15   Q 547.06 685.13 547.78 688.28   Q 547.89 688.76 548.26 689.08   Q 551.10 691.48 552.75 694.57   Q 552.99 695.01 553.39 695.29   Q 554.16 695.82 554.72 696.62   Q 554.97 696.98 554.63 697.25   Q 554.01 697.74 553.61 698.55   Q 553.39 699.01 553.66 699.43   Q 555.01 701.50 556.39 703.54   Q 556.62 703.88 557.00 704.08   Q 557.23 704.19 557.48 704.12   Q 558.05 703.97 558.43 704.42   Q 559.29 705.47 559.77 706.71   Q 560.01 707.35 560.31 706.73   Q 560.46 706.42 560.37 706.06   Q 560.27 705.60 560.53 706.00   Q 560.65 706.18 560.60 706.37   Q 560.56 706.53 560.69 706.64   Q 564.70 710.22 561.32 712.74   Z"/>
    <path fill="#24268f" d="   M 413.69 682.51   Q 413.45 683.39 412.60 684.21   Q 412.30 684.50 412.57 684.81   Q 412.74 685.01 412.98 684.89   Q 414.33 684.22 415.70 685.08   Q 417.36 686.13 419.55 686.24   Q 417.91 687.50 416.42 688.98   Q 414.69 690.68 413.17 691.73   Q 401.81 699.54 389.37 706.31   Q 388.47 706.79 387.64 707.56   Q 387.26 707.91 386.75 707.95   Q 384.62 708.11 382.72 709.08   Q 378.27 711.37 373.10 713.89   L 367.05 710.81   Q 367.57 710.70 367.05 709.70   Q 366.83 709.27 367.29 709.11   Q 376.33 705.97 384.01 701.89   Q 399.36 693.72 413.69 682.51   Z"/>
    <path fill="#24268f" d="   M 629.96 696.24   C 629.62 697.10 629.99 698.11 630.82 698.49   Q 638.06 701.83 644.64 705.41   C 647.73 707.09 651.22 707.03 654.70 707.67   Q 654.15 708.26 653.31 708.69   Q 652.93 707.75 651.81 708.42   Q 651.24 708.76 650.58 708.71   Q 641.99 708.11 633.44 707.11   Q 630.95 706.82 628.46 705.95   Q 625.99 705.09 623.68 704.42   Q 623.52 704.37 623.54 704.21   Q 623.57 703.97 623.30 703.83   Q 623.01 703.69 622.69 703.70   Q 618.83 703.90 615.83 701.34   L 629.96 696.24   Z"/>
    <path fill="#e2d8f9" d="   M 606.81 699.38   Q 607.70 700.05 607.32 701.18   Q 607.17 701.62 607.57 701.85   Q 608.68 702.47 608.85 703.53   L 580.66 712.69   C 571.39 715.04 561.95 717.55 552.66 719.12   Q 510.06 726.36 467.82 719.50   Q 447.15 716.14 426.77 706.32   Q 426.54 706.22 426.64 705.98   L 426.75 705.75   Q 426.77 705.69 426.83 705.71   Q 433.46 708.40 440.34 710.11   Q 457.68 714.43 473.88 716.55   Q 513.74 721.76 554.01 714.31   Q 557.57 713.65 561.32 712.74   L 579.82 708.30   L 606.81 699.38   Z"/>
    <path fill="#962bf1" d="   M 615.83 701.34   Q 618.83 703.90 622.69 703.70   Q 623.01 703.69 623.30 703.83   Q 623.57 703.97 623.54 704.21   Q 623.52 704.37 623.68 704.42   Q 625.99 705.09 628.46 705.95   Q 630.95 706.82 633.44 707.11   Q 641.99 708.11 650.58 708.71   Q 651.24 708.76 651.81 708.42   Q 652.93 707.75 653.31 708.69   Q 627.82 724.63 598.76 732.25   L 599.00 731.97   Q 599.36 731.55 598.85 731.36   Q 598.71 731.31 598.56 731.33   Q 598.19 731.39 598.12 731.02   C 597.84 729.56 596.81 729.08 595.98 727.99   Q 594.25 725.72 592.60 723.62   C 592.23 723.14 591.86 722.90 591.26 722.78   Q 590.86 722.69 590.56 722.41   Q 587.14 719.17 583.54 716.03   Q 583.37 715.88 583.14 715.86   Q 582.74 715.81 582.51 715.47   L 580.66 712.69   L 608.85 703.53   L 615.83 701.34   Z"/>
</svg>
